<?xml version="1.0" encoding="utf-8"?>
<!-- Generator: Adobe Illustrator 23.0.2, SVG Export Plug-In . SVG Version: 6.00 Build 0)  -->
<svg version="1.1" id="Layer_1" xmlns="http://www.w3.org/2000/svg" xmlns:xlink="http://www.w3.org/1999/xlink" x="0px" y="0px"
	 viewBox="0 0 150 150" style="enable-background:new 0 0 150 150;" xml:space="preserve">
<style type="text/css">
	.st0{fill:#002EAF;}
</style>
<g>
	<g>
		<path class="st0" d="M74.75,99.08c-19.19,0-38.38,0-57.57,0.01c-5.8,0-10.24-2.3-12.59-7.73c-1.99-4.59-1.14-8.92,1.72-12.99
			c12.34-17.53,24.63-35.09,36.94-52.64c2.11-3,4.21-6.02,6.34-9c3.2-4.47,8.28-6.61,13.03-5.47c5.59,1.34,9.04,4.82,10.07,10.51
			c2.05,11.32,4.08,22.64,5.98,33.99c0.37,2.2,1.26,3.2,3.45,3.78c18.13,4.77,36.24,9.65,54.34,14.52
			c6.72,1.81,10.75,7.53,9.91,13.93c-0.86,6.48-6.11,11.07-13.05,11.09C113.8,99.12,94.28,99.08,74.75,99.08z M73.68,57.12
			c0-0.79,0.07-1.28-0.01-1.75c-1.86-10.59-3.79-21.18-5.6-31.78c-0.65-3.83-2.45-6.62-6.36-7.45c-3.84-0.82-6.48,1.12-8.62,4.18
			C38.94,40.57,24.76,60.79,10.53,80.99c-1.99,2.82-2.82,5.68-1.19,8.88c1.62,3.18,4.43,4.33,7.87,4.33
			c38.49-0.01,76.97,0,115.46-0.01c4.89,0,8.3-2.71,8.78-6.82c0.5-4.21-2.03-7.47-6.83-8.75c-17.23-4.61-34.47-9.22-51.71-13.82
			c-0.76-0.2-1.54-0.3-2.6-0.51c0.36,2.17,0.65,3.97,0.94,5.76c0.7,4.23,0.7,4.23-3.51,4.85c-0.14,0.02-0.3-0.12-0.63-0.26
			c-0.56-3.08-1.25-6.26-1.67-9.47c-0.24-1.85-1-2.76-2.83-3.18c-3.24-0.74-6.42-1.71-9.78-2.63c0.46-1.69,0.87-3.16,1.28-4.69
			C67.44,55.52,70.47,56.3,73.68,57.12z"/>
	</g>
	<g>
		<path class="st0" d="M29.01,114.71c0,0.6-0.13,1.21-0.38,1.84c-0.25,0.63-0.67,1.13-1.25,1.51c0.48,0.2,0.88,0.45,1.19,0.75
			c0.31,0.3,0.55,0.63,0.74,1c0.18,0.37,0.31,0.76,0.39,1.16c0.08,0.41,0.11,0.84,0.11,1.29c-0.02,0.99-0.19,1.81-0.51,2.48
			c-0.33,0.67-0.76,1.21-1.31,1.63c-0.55,0.42-1.2,0.72-1.95,0.9s-1.56,0.28-2.43,0.28h-6.89v-17.73h6.91c0.73,0,1.43,0.1,2.08,0.3
			c0.65,0.2,1.22,0.5,1.72,0.91c0.49,0.41,0.88,0.92,1.16,1.53C28.87,113.18,29.01,113.9,29.01,114.71z M23.63,116.89
			c0.73,0,1.34-0.18,1.82-0.53c0.48-0.35,0.71-0.93,0.71-1.75c0-0.68-0.25-1.19-0.74-1.52c-0.49-0.33-1.09-0.49-1.79-0.49h-4.01
			v4.28H23.63z M23.85,124.78c0.85,0,1.56-0.18,2.13-0.55c0.62-0.4,0.93-1.08,0.93-2.05s-0.3-1.66-0.9-2.08
			c-0.57-0.4-1.32-0.6-2.25-0.6c-0.05,0-0.09,0-0.13,0h-4.01v5.29h4.01C23.69,124.78,23.77,124.78,23.85,124.78z"/>
		<path class="st0" d="M35.25,120.7v6.86h-2.91v-17.73h6.86c0.87,0,1.68,0.1,2.43,0.31s1.4,0.53,1.95,0.96c0.55,0.43,0.98,1,1.3,1.7
			s0.49,1.54,0.53,2.5c0,0.83-0.12,1.56-0.35,2.18c-0.23,0.62-0.56,1.14-0.98,1.57c-0.42,0.43-0.91,0.76-1.49,1.01
			c-0.58,0.25-1.2,0.43-1.87,0.53l5.49,6.96h-3.53l-5.31-6.86H35.25z M39.23,118.17c1,0,1.8-0.22,2.39-0.66
			c0.59-0.44,0.89-1.16,0.89-2.17c0-0.99-0.3-1.67-0.91-2.04c-0.61-0.38-1.4-0.56-2.37-0.56h-3.98v5.44H39.23z"/>
		<path class="st0" d="M62.05,127.56h-3.03l-1.73-4.61h-6.36l-1.6,4.61h-3.11l6.39-17.73h3.03L62.05,127.56z M54.06,112.76
			l-0.73,2.86l-1.43,4.43h4.38l-1.45-4.48l-0.68-2.81H54.06z"/>
		<path class="st0" d="M65.58,114.79c0,0.35,0.1,0.65,0.31,0.9c0.21,0.25,0.49,0.46,0.84,0.63s0.75,0.3,1.2,0.41
			c0.45,0.11,0.91,0.21,1.38,0.29c0.77,0.15,1.54,0.34,2.33,0.58c0.78,0.23,1.48,0.57,2.09,1c0.61,0.43,1.1,0.99,1.46,1.68
			c0.3,0.58,0.45,1.29,0.45,2.1c0,0.15-0.01,0.31-0.03,0.48c-0.03,0.85-0.25,1.59-0.64,2.2c-0.39,0.62-0.9,1.13-1.52,1.54
			c-0.62,0.41-1.31,0.71-2.09,0.91s-1.57,0.3-2.37,0.3c-0.68,0-1.35-0.09-2-0.28c-0.65-0.18-1.27-0.45-1.85-0.81
			c-0.58-0.36-1.11-0.81-1.59-1.34c-0.48-0.53-0.87-1.15-1.19-1.85l2.65-1.2c0.38,0.85,0.94,1.49,1.68,1.93
			c0.73,0.43,1.52,0.65,2.35,0.65c0.45,0,0.89-0.05,1.31-0.14s0.81-0.23,1.14-0.41c0.33-0.18,0.6-0.42,0.81-0.71
			c0.21-0.29,0.33-0.63,0.36-1.01c0-0.07,0-0.13,0-0.2c0-0.42-0.08-0.76-0.25-1.03c-0.22-0.32-0.51-0.58-0.89-0.78
			c-0.38-0.2-0.81-0.36-1.3-0.49c-0.49-0.13-1.01-0.24-1.57-0.34c-0.73-0.15-1.46-0.34-2.17-0.56c-0.71-0.23-1.35-0.53-1.92-0.93
			c-0.57-0.39-1.03-0.89-1.39-1.49c-0.36-0.6-0.54-1.34-0.54-2.23c0.05-0.8,0.26-1.51,0.64-2.14c0.38-0.63,0.86-1.15,1.45-1.58
			c0.59-0.43,1.26-0.75,1.99-0.96c0.73-0.22,1.49-0.33,2.28-0.33c0.67,0,1.32,0.07,1.95,0.2c0.63,0.13,1.23,0.35,1.78,0.66
			c0.55,0.31,1.06,0.71,1.52,1.19c0.46,0.48,0.84,1.08,1.14,1.78l-2.63,1.18c-0.38-0.83-0.9-1.39-1.55-1.68
			c-0.65-0.28-1.39-0.43-2.2-0.43c-0.43,0-0.86,0.05-1.27,0.15c-0.41,0.1-0.78,0.25-1.1,0.44c-0.33,0.19-0.59,0.43-0.79,0.73
			C65.68,114.09,65.58,114.42,65.58,114.79z"/>
		<path class="st0" d="M84.74,121.58h-6.96v-2.81h6.96V121.58z"/>
		<path class="st0" d="M87.77,109.83H91l4.88,11.52l4.93-11.52h3.26v17.73h-2.91v-8.14l0.55-4.81h-0.25l-1.5,4.18l-2.91,6.31h-2.28
			l-2.93-6.31l-1.48-4.26h-0.25l0.53,4.91v8.12h-2.88V109.83z"/>
		<path class="st0" d="M114.12,109.58c0.9,0,1.78,0.12,2.64,0.36c0.86,0.24,1.63,0.6,2.3,1.08c0.68,0.48,1.22,1.07,1.63,1.79
			c0.41,0.72,0.61,1.55,0.61,2.5v6.74c0,0.95-0.21,1.79-0.61,2.52s-0.95,1.33-1.63,1.8c-0.68,0.48-1.44,0.83-2.3,1.08
			c-0.86,0.24-1.74,0.36-2.64,0.36c-0.9,0-1.78-0.12-2.64-0.36c-0.86-0.24-1.63-0.6-2.29-1.08c-0.67-0.48-1.21-1.08-1.62-1.8
			s-0.61-1.57-0.61-2.52v-6.74c0-0.95,0.2-1.79,0.61-2.5c0.41-0.72,0.95-1.31,1.62-1.79c0.67-0.48,1.43-0.83,2.29-1.08
			C112.34,109.7,113.22,109.58,114.12,109.58z M109.84,122.03c0,0.48,0.12,0.91,0.36,1.26c0.24,0.36,0.56,0.66,0.96,0.89
			c0.4,0.23,0.86,0.41,1.38,0.54c0.52,0.13,1.04,0.19,1.58,0.19c0.55,0,1.09-0.06,1.6-0.19s0.98-0.3,1.38-0.54
			c0.4-0.23,0.72-0.53,0.96-0.89s0.36-0.78,0.36-1.26v-6.66c0-0.5-0.13-0.93-0.38-1.3c-0.25-0.37-0.58-0.67-0.98-0.9
			c-0.4-0.23-0.86-0.4-1.38-0.51c-0.52-0.11-1.04-0.16-1.58-0.16c-0.53,0-1.06,0.06-1.58,0.17c-0.52,0.12-0.98,0.29-1.38,0.53
			c-0.4,0.23-0.72,0.53-0.96,0.89c-0.24,0.36-0.36,0.79-0.36,1.29V122.03z"/>
		<path class="st0" d="M124.17,109.83h2.88v14.83h8.09v2.91h-10.97V109.83z"/>
	</g>
</g>
</svg>
