<?xml version="1.0" encoding="utf-8"?>
<!-- Generator: Adobe Illustrator 23.0.2, SVG Export Plug-In . SVG Version: 6.00 Build 0)  -->
<svg version="1.1" id="Layer_1" xmlns="http://www.w3.org/2000/svg" xmlns:xlink="http://www.w3.org/1999/xlink" x="0px" y="0px"
	 viewBox="0 0 50 50" style="enable-background:new 0 0 50 50;" xml:space="preserve">
<style type="text/css">
	.st0{fill:none;stroke:#002EAF;stroke-miterlimit:10;}
	.st1{fill:#02165B;}
</style>
<circle class="st0" cx="25" cy="25" r="23"/>
<g>
	<path class="st1" d="M9,31.2c0,0.2,0.2,0.4,0.4,0.5l1.9,0.4c0.1,0.3,0.1,0.6,0.3,0.9l-1.4,1.3c-0.2,0.2-0.2,0.4-0.1,0.6
		c0.3,0.5,0.5,1,0.9,1.5c0.1,0.2,0.4,0.3,0.6,0.2l1.8-0.6c0.2,0.2,0.4,0.5,0.7,0.7l-0.6,1.8c-0.1,0.2,0,0.5,0.2,0.6
		c0.4,0.3,0.9,0.6,1.5,0.8c0.2,0.1,0.5,0,0.6-0.1l1.3-1.4c0.3,0.1,0.6,0.2,0.9,0.3l0.4,1.9c0,0.2,0.2,0.4,0.5,0.4c0.3,0,0.6,0,0.9,0
		s0.6,0,0.9,0c0.2,0,0.4-0.2,0.5-0.4l0.4-1.9c0.3-0.1,0.6-0.2,0.9-0.3l1.3,1.4c0.2,0.2,0.4,0.2,0.6,0.1c0.5-0.3,1-0.5,1.5-0.8
		c0.2-0.1,0.3-0.4,0.2-0.6l-0.6-1.8c0.2-0.2,0.5-0.5,0.7-0.7l1.8,0.6c0.2,0.1,0.5,0,0.6-0.2c0.3-0.4,0.6-0.9,0.9-1.5
		c0.1-0.2,0-0.5-0.1-0.6L27.8,33c0.1-0.3,0.2-0.6,0.3-0.9l1.9-0.4c0.2,0,0.4-0.2,0.4-0.5c0-0.3,0-0.6,0-0.9s0-0.6,0-0.9
		c0-0.2-0.2-0.4-0.4-0.5L28,28.6c-0.1-0.3-0.1-0.6-0.3-0.9l1.4-1.3c0.2-0.2,0.2-0.4,0.1-0.6c-0.3-0.5-0.5-1-0.9-1.5
		c-0.1-0.2-0.4-0.3-0.6-0.2L26,24.7c-0.2-0.2-0.5-0.5-0.7-0.7l0.6-1.8c0.1-0.2,0-0.5-0.2-0.6c-0.4-0.3-0.9-0.6-1.5-0.9
		c-0.2-0.1-0.5,0-0.6,0.1l-1.3,1.4c-0.3-0.1-0.6-0.2-0.9-0.3L21,20.1c0-0.2-0.2-0.4-0.5-0.4c-0.6,0-1.1,0-1.7,0
		c-0.2,0-0.4,0.2-0.5,0.4L17.9,22c-0.3,0.1-0.6,0.1-0.9,0.3l-1.3-1.4c-0.2-0.2-0.4-0.2-0.6-0.1c-0.5,0.3-1,0.5-1.5,0.9
		c-0.2,0.1-0.3,0.4-0.2,0.6L14,24c-0.2,0.2-0.5,0.5-0.7,0.7l-1.8-0.6c-0.2-0.1-0.5,0-0.6,0.2c-0.3,0.4-0.6,0.9-0.9,1.5
		c-0.1,0.2-0.1,0.5,0.1,0.6l1.4,1.3c-0.1,0.3-0.2,0.6-0.3,0.9L9.5,29c-0.2,0-0.4,0.2-0.4,0.5c0,0.3,0,0.6,0,0.9S9,30.9,9,31.2
		L9,31.2z M10.1,30l1.8-0.4c0.2,0,0.4-0.2,0.4-0.4c0.1-0.5,0.2-1,0.4-1.4c0.1-0.2,0-0.4-0.1-0.6l-1.4-1.2c0.1-0.2,0.2-0.5,0.4-0.7
		l1.8,0.6c0.2,0.1,0.4,0,0.6-0.2c0.3-0.4,0.7-0.7,1.1-1c0.2-0.1,0.2-0.4,0.2-0.6l-0.6-1.8c0.2-0.1,0.4-0.3,0.7-0.4l1.2,1.4
		c0.1,0.2,0.4,0.2,0.6,0.1c0.5-0.2,0.9-0.3,1.4-0.4c0.2,0,0.4-0.2,0.4-0.4l0.4-1.8c0.3,0,0.5,0,0.8,0l0.4,1.8c0,0.2,0.2,0.4,0.4,0.4
		c0.5,0.1,1,0.2,1.4,0.4c0.2,0.1,0.4,0,0.6-0.1l1.2-1.4c0.2,0.1,0.5,0.2,0.7,0.4L24.2,24c-0.1,0.2,0,0.4,0.2,0.6
		c0.4,0.3,0.7,0.7,1,1c0.1,0.2,0.4,0.2,0.6,0.2l1.8-0.6c0.1,0.2,0.3,0.4,0.4,0.6l-1.4,1.2c-0.2,0.1-0.2,0.4-0.1,0.6
		c0.2,0.5,0.3,0.9,0.4,1.4c0,0.2,0.2,0.4,0.4,0.4l1.8,0.4c0,0.1,0,0.3,0,0.4s0,0.3,0,0.4l-1.8,0.4c-0.2,0-0.4,0.2-0.4,0.4
		c-0.1,0.5-0.2,1-0.4,1.4c-0.1,0.2,0,0.4,0.1,0.6l1.4,1.2c-0.1,0.2-0.2,0.5-0.4,0.7L26,34.9c-0.2-0.1-0.4,0-0.6,0.2
		c-0.3,0.4-0.7,0.7-1,1c-0.2,0.1-0.2,0.4-0.2,0.6l0.6,1.8c-0.2,0.1-0.4,0.3-0.6,0.4l-1.2-1.4c-0.1-0.2-0.4-0.2-0.6-0.1
		c-0.5,0.2-0.9,0.3-1.4,0.4c-0.2,0-0.4,0.2-0.4,0.4l-0.4,1.8c-0.3,0-0.5,0-0.8,0l-0.4-1.8c0-0.2-0.2-0.4-0.4-0.4
		c-0.5-0.1-1-0.2-1.4-0.4c-0.2-0.1-0.4,0-0.6,0.1l-1.2,1.4c-0.2-0.1-0.4-0.2-0.7-0.4l0.6-1.8c0.1-0.2,0-0.4-0.2-0.6
		c-0.4-0.3-0.7-0.7-1.1-1c-0.1-0.2-0.4-0.2-0.6-0.2l-1.8,0.6c-0.1-0.2-0.3-0.4-0.4-0.7l1.4-1.2c0.2-0.2,0.2-0.4,0.1-0.6
		c-0.2-0.5-0.3-0.9-0.4-1.4c0-0.2-0.2-0.4-0.4-0.4l-1.8-0.4c0-0.1,0-0.3,0-0.4S10.1,30.1,10.1,30z"/>
	<path class="st1" d="M36.8,16.6c0.2-0.1,0.3-0.2,0.4-0.5c0-0.3,0-0.5,0-0.7s0-0.5,0-0.7c0-0.2-0.2-0.4-0.4-0.4l-1.5-0.5
		c0-0.1-0.1-0.2-0.2-0.4l0.7-1.4c0.1-0.2,0.1-0.4,0-0.6c-0.3-0.4-0.7-0.8-1.1-1.1c-0.2-0.1-0.4-0.1-0.6-0.1l-1.4,0.7
		c-0.1-0.1-0.2-0.1-0.4-0.1l-0.5-1.5c-0.1-0.2-0.2-0.4-0.5-0.4c-0.5-0.1-1-0.1-1.5,0c-0.2,0-0.4,0.2-0.5,0.4l-0.5,1.5
		c-0.1,0-0.2,0.1-0.4,0.1l-1.4-0.7c-0.2-0.1-0.4-0.1-0.6,0.1c-0.4,0.3-0.8,0.7-1.1,1.1c-0.1,0.2-0.1,0.4,0,0.6l0.7,1.4
		c0,0.1-0.1,0.2-0.1,0.4l-1.5,0.5c-0.2,0.1-0.4,0.2-0.4,0.4c0,0.3,0,0.5,0,0.7s0,0.5,0,0.7c0,0.2,0.2,0.4,0.4,0.5l1.5,0.5
		c0,0.1,0.1,0.2,0.1,0.4l-0.7,1.4c-0.1,0.2-0.1,0.4,0,0.6c0.3,0.4,0.7,0.8,1.1,1.1c0.2,0.1,0.4,0.1,0.6,0l1.4-0.7
		c0.1,0,0.2,0.1,0.4,0.1l0.5,1.5c0.1,0.2,0.2,0.4,0.5,0.4c0.3,0,0.5,0,0.8,0s0.5,0,0.7,0c0.2,0,0.4-0.2,0.5-0.4l0.5-1.5
		c0.1,0,0.2-0.1,0.4-0.1l1.4,0.7c0.2,0.1,0.4,0.1,0.6,0c0.4-0.3,0.8-0.7,1.1-1.1c0.1-0.2,0.2-0.4,0-0.6l-0.7-1.4
		c0-0.1,0.1-0.2,0.2-0.4L36.8,16.6z M34.8,16.1c-0.2,0-0.3,0.2-0.3,0.4c-0.1,0.2-0.2,0.5-0.3,0.7c-0.1,0.2-0.1,0.3,0,0.5l0.7,1.3
		c-0.1,0.1-0.3,0.3-0.4,0.4l-1.3-0.7c-0.2-0.1-0.3-0.1-0.5,0c-0.2,0.1-0.5,0.2-0.7,0.3c-0.2,0-0.3,0.2-0.4,0.4l-0.4,1.4
		c-0.2,0-0.4,0-0.6,0l-0.4-1.4c0-0.2-0.2-0.3-0.4-0.4c-0.2-0.1-0.5-0.2-0.7-0.3c-0.2-0.1-0.3-0.1-0.5,0l-1.3,0.7
		c-0.1-0.1-0.3-0.3-0.4-0.4l0.7-1.3c0.1-0.2,0.1-0.3,0-0.5c-0.1-0.2-0.2-0.5-0.3-0.7c0-0.2-0.2-0.3-0.4-0.4l-1.4-0.4
		c0-0.1,0-0.2,0-0.3s0-0.2,0-0.3l1.4-0.4c0.2-0.1,0.3-0.2,0.4-0.4c0.1-0.2,0.2-0.5,0.3-0.7c0.1-0.2,0.1-0.3,0-0.5l-0.7-1.3
		c0.1-0.1,0.3-0.3,0.4-0.4l1.3,0.7c0.2,0.1,0.3,0.1,0.5,0c0.2-0.1,0.5-0.2,0.7-0.3c0.2-0.1,0.3-0.2,0.4-0.4l0.4-1.4
		c0.2,0,0.4,0,0.6,0l0.4,1.4c0,0.2,0.2,0.3,0.4,0.4c0.2,0.1,0.5,0.2,0.7,0.3c0.2,0.1,0.3,0.1,0.5,0l1.3-0.7c0.1,0.1,0.3,0.3,0.4,0.4
		l-0.7,1.3c-0.1,0.2-0.1,0.3,0,0.5c0.1,0.2,0.2,0.4,0.3,0.7c0,0.2,0.2,0.3,0.3,0.4l1.4,0.4c0,0.1,0,0.2,0,0.3s0,0.2,0,0.3L34.8,16.1
		z"/>
	<path class="st1" d="M40.6,26.6l-0.9-0.3c0-0.1-0.1-0.3-0.2-0.4l0.4-0.9c0.1-0.2,0.1-0.4-0.1-0.6c-0.3-0.3-0.6-0.6-0.9-0.9
		c-0.2-0.1-0.4-0.1-0.6-0.1l-0.9,0.4c-0.1-0.1-0.3-0.1-0.4-0.2l-0.3-0.9c-0.1-0.2-0.2-0.3-0.4-0.4c-0.5-0.1-0.8-0.1-1.3,0
		c-0.2,0-0.4,0.2-0.4,0.4l-0.3,0.9c-0.2,0-0.3,0.1-0.4,0.2l-0.9-0.4c-0.2-0.1-0.4-0.1-0.6,0.1c-0.3,0.3-0.6,0.6-0.9,0.9
		c-0.1,0.2-0.1,0.4-0.1,0.6l0.4,0.9c-0.1,0.1-0.1,0.3-0.2,0.4l-0.9,0.3c-0.2,0.1-0.3,0.2-0.4,0.4c0,0.2,0,0.5,0,0.6s0,0.4,0,0.6
		c0,0.2,0.2,0.4,0.4,0.4l0.9,0.3c0,0.1,0.1,0.3,0.2,0.4l-0.4,0.9c-0.1,0.2-0.1,0.4,0.1,0.6c0.3,0.3,0.6,0.6,0.9,0.9
		c0.2,0.1,0.4,0.2,0.6,0.1l0.9-0.4c0.1,0.1,0.3,0.1,0.4,0.2l0.3,0.9c0.1,0.2,0.2,0.3,0.4,0.3c0.2,0,0.5,0,0.7,0s0.4,0,0.7,0
		c0.2,0,0.4-0.2,0.4-0.3l0.3-0.9c0.2,0,0.3-0.1,0.4-0.2l0.9,0.4c0.2,0.1,0.4,0.1,0.6-0.1c0.3-0.3,0.7-0.6,0.9-0.9
		c0.1-0.2,0.2-0.4,0.1-0.6l-0.4-0.9c0.1-0.1,0.1-0.3,0.2-0.4l0.9-0.3c0.2-0.1,0.3-0.2,0.3-0.4c0-0.2,0-0.5,0-0.6s0-0.4,0-0.6
		C40.9,26.8,40.8,26.6,40.6,26.6L40.6,26.6z M39.9,27.9l-0.8,0.3c-0.2,0.1-0.3,0.2-0.3,0.4c-0.1,0.3-0.2,0.5-0.3,0.7
		c-0.1,0.1-0.1,0.3,0,0.5l0.4,0.8c-0.1,0.1-0.2,0.2-0.3,0.3l-0.8-0.4c-0.2-0.1-0.3-0.1-0.5,0c-0.2,0.1-0.5,0.2-0.7,0.3
		c-0.2,0-0.3,0.2-0.4,0.3L35.8,32c-0.1,0-0.3,0-0.4,0l-0.3-0.9c-0.1-0.2-0.2-0.3-0.4-0.3c-0.3-0.1-0.5-0.2-0.7-0.3
		c-0.2-0.1-0.3-0.1-0.5,0l-0.8,0.4c-0.1-0.1-0.2-0.2-0.3-0.3l0.4-0.8c0.1-0.2,0.1-0.3,0-0.5c-0.1-0.2-0.2-0.5-0.3-0.7
		c0-0.2-0.2-0.3-0.3-0.4l-0.9-0.3c0-0.1,0-0.1,0-0.2c0-0.1,0-0.1,0-0.2l0.9-0.3c0.2-0.1,0.3-0.2,0.3-0.4c0.1-0.3,0.2-0.5,0.3-0.7
		c0.1-0.1,0.1-0.3,0-0.5l-0.4-0.8c0.1-0.1,0.2-0.2,0.3-0.3l0.8,0.4c0.2,0.1,0.3,0.1,0.5,0c0.2-0.1,0.5-0.2,0.7-0.3
		c0.2,0,0.3-0.2,0.4-0.3l0.3-0.9c0.1,0,0.3,0,0.4,0l0.3,0.9c0.1,0.2,0.2,0.3,0.4,0.3c0.3,0.1,0.5,0.2,0.7,0.3c0.2,0.1,0.3,0.1,0.5,0
		l0.8-0.4c0.1,0.1,0.2,0.2,0.3,0.3l-0.4,0.8c-0.1,0.2-0.1,0.3,0,0.5c0.1,0.2,0.2,0.5,0.3,0.7c0,0.2,0.2,0.3,0.3,0.4l0.8,0.3
		c0,0.1,0,0.1,0,0.2C39.9,27.7,39.9,27.8,39.9,27.9L39.9,27.9z"/>
	<path class="st1" d="M19.7,36.2c3.2,0,5.9-2.6,5.9-5.9s-2.6-5.9-5.9-5.9s-5.9,2.6-5.9,5.9S16.4,36.2,19.7,36.2z M19.7,25.5
		c2.6,0,4.8,2.1,4.8,4.8s-2.1,4.8-4.8,4.8s-4.8-2.2-4.8-4.8S17,25.5,19.7,25.5z"/>
	<path class="st1" d="M9,21.5l0.8,0.7c2.4-2.9,6-4.6,9.8-4.6c0.3,0,0.5,0,0.8,0l-0.7,0.7l0.8,0.8l1.6-1.6c0.2-0.2,0.2-0.5,0-0.8
		L20.6,15l-0.8,0.8l0.7,0.7c-0.3,0-0.6,0-0.9,0C15.5,16.5,11.7,18.3,9,21.5L9,21.5z"/>
	<path class="st1" d="M30.9,12.7c-1.5,0-2.7,1.2-2.7,2.7s1.2,2.7,2.7,2.7s2.7-1.2,2.7-2.7S32.3,12.7,30.9,12.7z M30.9,17
		c-0.9,0-1.6-0.7-1.6-1.6c0-0.9,0.7-1.6,1.6-1.6c0.9,0,1.6,0.7,1.6,1.6C32.5,16.3,31.8,17,30.9,17z"/>
	<path class="st1" d="M35.7,25.5c-1.2,0-2.1,1-2.1,2.1c0,1.2,1,2.1,2.1,2.1s2.1-1,2.1-2.1C37.8,26.5,36.8,25.5,35.7,25.5z
		 M35.7,28.7c-0.6,0-1.1-0.5-1.1-1.1s0.5-1.1,1.1-1.1s1.1,0.5,1.1,1.1C36.7,28.3,36.3,28.7,35.7,28.7z"/>
	<path class="st1" d="M40.6,10.6l-2.7-0.5c-0.3-0.1-0.6,0.1-0.6,0.4l-0.5,2.7l1,0.2l0.3-1.4c0.5,1.1,0.8,2.3,0.8,3.5
		c0,1.8-0.6,3.6-1.8,5l0.8,0.7c1.3-1.6,2-3.6,2-5.7c0-1.4-0.3-2.8-0.9-4l1.4,0.3L40.6,10.6z"/>
</g>
</svg>
