<?xml version="1.0" encoding="utf-8"?>
<!-- Generator: Adobe Illustrator 23.0.2, SVG Export Plug-In . SVG Version: 6.00 Build 0)  -->
<svg version="1.1" id="Layer_1" xmlns="http://www.w3.org/2000/svg" xmlns:xlink="http://www.w3.org/1999/xlink" x="0px" y="0px"
	 viewBox="0 0 50 50" style="enable-background:new 0 0 50 50;" xml:space="preserve">
<style type="text/css">
	.st0{fill:none;stroke:#02165B;stroke-miterlimit:10;}
	.st1{fill:#002EAF;}
</style>
<circle class="st0" cx="25" cy="25" r="23"/>
<path class="st1" d="M37.4,12c-0.3,0-0.6,0.3-0.6,0.6v11.3c-0.8-1.6-2.1-2.9-3.6-3.8c-0.8-1.4-2-2.6-3.4-3.4
	c-1.7-2.8-4.7-4.7-8.3-4.7c-5.3,0-9.6,4.3-9.6,9.6v15.8c0,0.3,0.3,0.6,0.6,0.6s0.6-0.3,0.6-0.6V26.1c0.8,1.6,2.1,2.9,3.6,3.8
	c0.8,1.4,2,2.6,3.4,3.4c1.7,2.8,4.7,4.7,8.3,4.7c5.3,0,9.6-4.3,9.6-9.6V12.6C38,12.3,37.8,12,37.4,12z M31.2,19.2
	c-0.1,0-0.2,0-0.3-0.1c0-0.1,0-0.2-0.1-0.3C30.9,19,31,19.1,31.2,19.2z M33.5,25c0,4.7-3.8,8.5-8.5,8.5c-1.5,0-2.9-0.4-4-1
	c-0.2-0.4-0.4-0.9-0.6-1.3c0.4,0,0.8,0.1,1.2,0.1c5.3,0,9.6-4.3,9.6-9.6c0-0.4,0-0.8-0.1-1.2c0.5,0.2,0.9,0.3,1.3,0.6
	C33.1,22.1,33.5,23.5,33.5,25z M16.5,25c0-4.7,3.8-8.5,8.5-8.5c1.5,0,2.9,0.4,4,1c0.2,0.4,0.4,0.9,0.6,1.3c-0.4,0-0.8-0.1-1.2-0.1
	c-5.3,0-9.6,4.3-9.6,9.6c0,0.4,0,0.8,0.1,1.2c-0.5-0.2-0.9-0.3-1.3-0.6C16.9,27.9,16.5,26.5,16.5,25z M19.9,28.4
	c0-4.7,3.8-8.5,8.5-8.5c0.5,0,1,0,1.5,0.1c0.1,0.5,0.1,1,0.1,1.5c0,4.7-3.8,8.5-8.5,8.5c-0.5,0-1,0-1.5-0.1
	C20,29.4,19.9,28.9,19.9,28.4z M13.1,21.6c0-4.7,3.8-8.5,8.5-8.5c2.4,0,4.6,1,6.2,2.7c-0.9-0.3-1.8-0.4-2.8-0.4
	c-5.3,0-9.6,4.3-9.6,9.6c0,1,0.1,1.9,0.4,2.8C14.2,26.2,13.1,24,13.1,21.6z M18.8,30.8c0.1,0,0.2,0,0.3,0.1c0,0.1,0,0.2,0.1,0.3
	C19.1,31,19,30.9,18.8,30.8z M28.4,36.9c-2.4,0-4.6-1-6.2-2.7c0.9,0.3,1.8,0.4,2.8,0.4c5.3,0,9.6-4.3,9.6-9.6c0-1-0.2-1.9-0.4-2.8
	c1.6,1.5,2.7,3.7,2.7,6.2C36.9,33.1,33.1,36.9,28.4,36.9z"/>
</svg>
