<?xml version="1.0" encoding="utf-8"?>
<!-- Generator: Adobe Illustrator 23.0.2, SVG Export Plug-In . SVG Version: 6.00 Build 0)  -->
<svg version="1.1" id="Layer_1" xmlns="http://www.w3.org/2000/svg" xmlns:xlink="http://www.w3.org/1999/xlink" x="0px" y="0px"
	 viewBox="0 0 50 50" style="enable-background:new 0 0 50 50;" xml:space="preserve">
<style type="text/css">
	.st0{fill:none;stroke:#002EAF;stroke-miterlimit:10;}
	.st1{fill:#02165B;}
</style>
<circle class="st0" cx="25" cy="25" r="23"/>
<g>
	<g>
		<g>
			<path class="st1" d="M25,14.8c1.3,0,2.4-1.1,2.4-2.4S26.3,10,25,10s-2.4,1.1-2.4,2.4S23.7,14.8,25,14.8z M25,11.2
				c0.7,0,1.2,0.5,1.2,1.2s-0.5,1.2-1.2,1.2c-0.7,0-1.2-0.5-1.2-1.2C23.8,11.7,24.3,11.2,25,11.2z"/>
			<path class="st1" d="M25.9,15.2C25.9,15.2,25.9,15.2,25.9,15.2h-1.7c-1.8-0.1-3.3,1.4-3.4,3.2c0,0,0,0,0,0v0.5
				c0,0.3,0.3,0.5,0.7,0.5h7.1c0.3,0,0.7-0.2,0.7-0.5v-0.5C29.2,16.6,27.7,15.2,25.9,15.2z M22,18.2c0.1-0.9,1-1.8,2.1-1.8h1.7
				c1.1,0,2,0.9,2.1,1.8H22z"/>
			<path class="st1" d="M15.2,25.3c0.3,0,0.6-0.3,0.6-0.6c0-2.8,1.3-5.4,3.4-7.2c0.2-0.2,0.2-0.6,0-0.9c-0.2-0.2-0.5-0.2-0.8-0.1
				c-2.5,2-3.9,5-3.9,8.1C14.6,25,14.9,25.3,15.2,25.3z"/>
			<path class="st1" d="M27.9,33.4C27.9,33.4,27.9,33.4,27.9,33.4C26,34,24,34,22.1,33.4c-0.3-0.1-0.6,0.1-0.8,0.4
				c-0.1,0.3,0,0.6,0.3,0.7c0,0,0,0,0,0c2.1,0.7,4.5,0.7,6.6,0c0.3-0.1,0.5-0.5,0.4-0.8C28.6,33.5,28.3,33.3,27.9,33.4z"/>
			<path class="st1" d="M30.3,17.2c2.4,1.7,3.9,4.5,3.9,7.5c0,0.3,0.3,0.6,0.6,0.6s0.6-0.3,0.6-0.6c0-3.4-1.7-6.5-4.4-8.5
				c-0.3-0.2-0.6-0.1-0.8,0.1C30,16.6,30,17,30.3,17.2z"/>
			<path class="st1" d="M16,31.4c1.3,0,2.4-1.1,2.4-2.4s-1.1-2.4-2.4-2.4s-2.4,1.1-2.4,2.4S14.6,31.4,16,31.4z M16,27.8
				c0.7,0,1.2,0.5,1.2,1.2s-0.5,1.2-1.2,1.2s-1.2-0.5-1.2-1.2C14.8,28.3,15.3,27.8,16,27.8z"/>
			<path class="st1" d="M16.8,31.8C16.8,31.8,16.8,31.8,16.8,31.8h-1.7c-1.8,0-3.3,1.4-3.4,3.2c0,0,0,0,0,0v0.5
				c0,0.3,0.3,0.5,0.7,0.5h7.1c0.3,0,0.7-0.2,0.7-0.5V35C20.1,33.2,18.6,31.8,16.8,31.8z M13,34.8c0.1-0.9,1-1.8,2.1-1.8h1.7
				c1.1,0,2,0.9,2.1,1.8H13L13,34.8z"/>
			<path class="st1" d="M31.6,29c0,1.3,1.1,2.4,2.4,2.4s2.4-1.1,2.4-2.4s-1.1-2.4-2.4-2.4S31.6,27.6,31.6,29z M35.2,29
				c0,0.7-0.5,1.2-1.2,1.2s-1.2-0.5-1.2-1.2c0-0.7,0.5-1.2,1.2-1.2S35.2,28.3,35.2,29z"/>
			<path class="st1" d="M34.9,31.8C34.9,31.8,34.9,31.8,34.9,31.8h-1.7c-1.8,0-3.3,1.4-3.4,3.2c0,0,0,0,0,0v0.5
				c0,0.3,0.3,0.5,0.7,0.5h7.1c0.3,0,0.7-0.2,0.7-0.5V35C38.2,33.2,36.7,31.8,34.9,31.8z M31.1,34.8c0.1-0.9,1-1.8,2.1-1.8h1.7
				c1.1,0,2,0.9,2.1,1.8H31.1L31.1,34.8z"/>
		</g>
	</g>
</g>
</svg>
