<?xml version="1.0" encoding="utf-8"?>
<!-- Generator: Adobe Illustrator 23.0.2, SVG Export Plug-In . SVG Version: 6.00 Build 0)  -->
<svg version="1.1" id="Layer_1" xmlns="http://www.w3.org/2000/svg" xmlns:xlink="http://www.w3.org/1999/xlink" x="0px" y="0px"
	 viewBox="0 0 50 50" style="enable-background:new 0 0 50 50;" xml:space="preserve">
<style type="text/css">
	.st0{fill:none;stroke:#002EAF;stroke-miterlimit:10;}
	.st1{fill:#02165B;}
</style>
<circle class="st0" cx="25" cy="25" r="23"/>
<g>
	<path class="st1" d="M36.3,29.5c-0.2,0-0.4,0.2-0.4,0.4v1.8c0,0.2,0.2,0.4,0.4,0.4s0.4-0.2,0.4-0.4v-1.8
		C36.7,29.6,36.5,29.5,36.3,29.5z"/>
	<path class="st1" d="M37.6,12H12.4c-0.2,0-0.4,0.2-0.4,0.4v25.2c0,0.2,0.2,0.4,0.4,0.4h25.2c0.2,0,0.4-0.2,0.4-0.4V12.4
		C38,12.2,37.8,12,37.6,12z M17.3,35.9V24.7h8v3.2H25c-0.2,0-0.4,0.2-0.4,0.4s0.2,0.4,0.4,0.4h0.3v3.2H25c-0.2,0-0.4,0.2-0.4,0.4
		s0.2,0.4,0.4,0.4h0.3v3.2L17.3,35.9L17.3,35.9z M26,32.7h0.3c0.2,0,0.4-0.2,0.4-0.4s-0.2-0.4-0.4-0.4H26v-3.2h0.3
		c0.2,0,0.4-0.2,0.4-0.4s-0.2-0.4-0.4-0.4H26v-3.6c0-0.2-0.2-0.4-0.4-0.4h-8.7c-0.2,0-0.4,0.2-0.4,0.4v11.6h-3.8V14.1h24.5v21.8H26
		V32.7z M12.8,12.8h24.5v0.6H12.8V12.8z M37.2,37.2H12.8v-0.5h24.5V37.2z"/>
	<path class="st1" d="M36,15.7c0-0.2-0.2-0.4-0.4-0.4h-6c-0.2,0-0.4,0.2-0.4,0.4v5.7c0,0.2,0.2,0.4,0.4,0.4h6c0.2,0,0.4-0.2,0.4-0.4
		V15.7z M35.3,21H30v-5h5.3V21z"/>
	<path class="st1" d="M31.3,17.6h2.6c0.2,0,0.4-0.2,0.4-0.4s-0.2-0.4-0.4-0.4h-2.6c-0.2,0-0.4,0.2-0.4,0.4S31.1,17.6,31.3,17.6z"/>
	<path class="st1" d="M31.3,18.9h2.6c0.2,0,0.4-0.2,0.4-0.4s-0.2-0.4-0.4-0.4h-2.6c-0.2,0-0.4,0.2-0.4,0.4S31.1,18.9,31.3,18.9z"/>
	<path class="st1" d="M31.3,20.3h2.6c0.2,0,0.4-0.2,0.4-0.4s-0.2-0.4-0.4-0.4h-2.6c-0.2,0-0.4,0.2-0.4,0.4S31.1,20.3,31.3,20.3z"/>
	<path class="st1" d="M24.1,19.7l-0.3-0.2l0.1,0c0.2-0.1,0.3-0.3,0.1-0.5c-0.1-0.2-0.3-0.3-0.5-0.1L23,19.1L22,18.6L23,18l0.5,0.3
		c0.2,0.1,0.4,0.1,0.5-0.1s0.1-0.4-0.1-0.5l-0.1-0.1l0.3-0.2c0.2-0.1,0.3-0.3,0.1-0.5s-0.3-0.3-0.5-0.1l0,0l-0.3,0.2v-0.1
		c0-0.2-0.2-0.4-0.4-0.4l0,0c-0.2,0-0.4,0.2-0.4,0.4l0,0v0.6l-0.9,0.5v-1.1l0.5-0.3c0.2-0.1,0.3-0.3,0.1-0.5
		c-0.1-0.2-0.3-0.3-0.5-0.1l0,0l-0.1,0.1v-0.4c0-0.2-0.2-0.4-0.4-0.4s-0.4,0.2-0.4,0.4v0.4l-0.1-0.1c-0.2-0.1-0.4,0-0.5,0.2
		s0,0.4,0.1,0.5l0,0l0.5,0.3v1.1L20,17.4l0-0.6c0-0.2-0.2-0.4-0.4-0.4s-0.4,0.2-0.4,0.4l0,0.2l-0.4-0.2c-0.2-0.1-0.4,0-0.5,0.1
		s0,0.4,0.1,0.5l0.3,0.1l0,0c-0.2,0.1-0.3,0.3-0.1,0.5s0.3,0.3,0.5,0.1l0,0l0.4-0.2l1,0.6l-0.9,0.5l-0.5-0.3
		c-0.2-0.1-0.4-0.1-0.5,0.1s-0.1,0.4,0.1,0.5c0,0,0,0,0,0l0.1,0.1l-0.4,0.2c-0.2,0.1-0.3,0.3-0.1,0.5s0.3,0.3,0.5,0.1l0.3-0.2v0.1
		c0,0.2,0.2,0.4,0.4,0.4l0,0c0.2,0,0.4-0.2,0.4-0.4v-0.5l0.9-0.5v1l-0.5,0.3c-0.2,0.1-0.3,0.3-0.1,0.5c0.1,0.2,0.3,0.3,0.5,0.1l0,0
		l0.1-0.1v0.4c0,0.2,0.2,0.4,0.4,0.4s0.4-0.2,0.4-0.4v-0.4l0.1,0.1c0.2,0.1,0.4,0,0.5-0.1s0-0.4-0.1-0.5l0,0l-0.5-0.3v-1l0.9,0.5
		l0,0.6c0,0.2,0.2,0.4,0.4,0.4l0,0h0c0.2,0,0.4-0.2,0.4-0.4l0-0.2l0.4,0.2c0.2,0.1,0.4,0,0.5-0.1C24.3,20.1,24.3,19.9,24.1,19.7
		L24.1,19.7z"/>
</g>
</svg>
