<svg id="Ebene_1" data-name="Ebene 1" xmlns="http://www.w3.org/2000/svg" viewBox="0 0 172.83 51.02"><defs><style>.cls-1,.cls-2{fill:#213a8f;}.cls-1{fill-rule:evenodd;}</style></defs><title>02_Logo-AUNDE</title><path class="cls-1" d="M5.92,25.78l1.29-2.43,1.24,2.43ZM36.07,28a2.62,2.62,0,0,0,2.15-2.58,2.3,2.3,0,0,0-2.31-2.32H33.15v4.91ZM2.57,29,6.46,22h1.4l4,7.07H10.24L9.16,26.91H5.22L4.14,29Zm17.67-3s.62,3.16-3.81,3.16S12.55,26.05,12.55,26V22h1.5V26s-.14,2.08,2.39,2.08,2.32-2.05,2.32-2.1V22h1.5v4Zm1.86,3.09v-7h1.62l4.69,5.12V22h1.4v7.13H28.19l-4.58-5v5l-1.51,0Zm14,0c.06,0,3.61-.33,3.61-3.68S35.91,22.06,36,22.06H31.64v7.07Zm5.13,0V22.06h7v1H42.76V25H48v1H42.76v2h5.66v1.07l-7.17,0Z"/><path class="cls-2" d="M51,25.51A25.5,25.5,0,1,0,25.5,51,25.53,25.53,0,0,0,51,25.51Zm-49.14-6a24.57,24.57,0,0,1,3.19-7.27,26.54,26.54,0,0,0,4.07,1.63,28.35,28.35,0,0,0-1.9,5.64ZM9.45,14a43,43,0,0,0,4.6,1.13,33.93,33.93,0,0,0-1,4.37l.19,0H7.58A27.28,27.28,0,0,1,9.45,14ZM18.19,3.5A16.89,16.89,0,0,0,20.26,4,24.74,24.74,0,0,0,16.66,9c-1.22-.23-2.39-.51-3.49-.83A26,26,0,0,1,18.19,3.5ZM12.81,8a25.86,25.86,0,0,1-3.05-1.1,24.16,24.16,0,0,1,6.78-4.08,11.18,11.18,0,0,0,1.25.53A26.5,26.5,0,0,0,12.81,8ZM32.73,3.52a26.64,26.64,0,0,1,5,4.62A34.78,34.78,0,0,1,34.28,9a24.75,24.75,0,0,0-3.62-4.91A16.89,16.89,0,0,0,32.73,3.52Zm.4-.13a12.87,12.87,0,0,0,1.34-.55,24.13,24.13,0,0,1,6.77,4.07A27.06,27.06,0,0,1,38.12,8,26.56,26.56,0,0,0,33.13,3.39ZM21.31,9.92c1.3.11,2.64.17,4,.17v5.73c-1.78,0-3.54-.09-5.26-.23A46.89,46.89,0,0,1,21.31,9.92ZM19.7,15.56c-1.81-.17-3.55-.4-5.21-.71a30.34,30.34,0,0,1,2.35-5.52c1.32.24,2.7.43,4.11.56A49,49,0,0,0,19.7,15.56Zm5.95-5.47c1.34,0,2.67-.06,4-.16a46.3,46.3,0,0,1,1.27,5.66c-1.71.15-3.47.22-5.25.23ZM30,9.9c1.41-.13,2.79-.31,4.12-.56a30.15,30.15,0,0,1,2.35,5.53c-1.66.3-3.41.53-5.21.69A46.75,46.75,0,0,0,30,9.9Zm4.47-.62C35.69,9,36.88,8.76,38,8.43a26.92,26.92,0,0,1,3.34,5.26,39.87,39.87,0,0,1-4.55,1.11A30.32,30.32,0,0,0,34.45,9.28ZM30.26,4.13A24.48,24.48,0,0,1,33.92,9c-1.3.24-2.65.42-4,.54a30.53,30.53,0,0,0-2-5.12C28.69,4.37,29.5,4.27,30.26,4.13Zm-2.76.34a30.18,30.18,0,0,1,2,5.12c-1.27.1-2.57.16-3.88.16V4.54C26.27,4.53,26.89,4.51,27.5,4.47ZM25.3,9.75c-1.31,0-2.62-.06-3.9-.17a30.51,30.51,0,0,1,2-5.12c.61,0,1.24.07,1.87.08Zm-4.25-.2c-1.38-.12-2.73-.3-4-.54a24.51,24.51,0,0,1,3.65-4.9,22.08,22.08,0,0,0,2.4.32A31.78,31.78,0,0,0,21.05,9.55Zm-4.57-.28a30.29,30.29,0,0,0-2.33,5.52,42.25,42.25,0,0,1-4.56-1.12,26.87,26.87,0,0,1,3.33-5.26C14.05,8.74,15.24,9,16.48,9.27Zm-2.09,5.91c1.67.31,3.43.56,5.25.72-.18,1.18-.33,2.38-.44,3.62H13.38A32.25,32.25,0,0,1,14.39,15.18Zm5.6.75c1.73.14,3.51.23,5.31.23v3.36H19.54C19.66,18.29,19.81,17.09,20,15.93Zm5.66.23c1.8,0,3.57-.08,5.3-.23.19,1.17.33,2.37.45,3.59H25.65Zm6.1,3.36c-.12-1.23-.27-2.44-.45-3.62,1.82-.16,3.58-.4,5.25-.7a34.87,34.87,0,0,1,1,4.32Zm6.16,0a34.24,34.24,0,0,0-1-4.39A43,43,0,0,0,41.49,14a27.72,27.72,0,0,1,1.87,5.51Zm5.8,0a27.84,27.84,0,0,0-1.89-5.61A29.6,29.6,0,0,0,46,12.26a24.13,24.13,0,0,1,3.18,7.26Zm2-7.55a27.45,27.45,0,0,1-4.09,1.62,26.86,26.86,0,0,0-3.31-5.27,27.92,27.92,0,0,0,3.17-1.16A24.25,24.25,0,0,1,45.76,12ZM34,2.66a21.64,21.64,0,0,1-8.52,1.53h0A21.66,21.66,0,0,1,17,2.66,24.39,24.39,0,0,1,34,2.66ZM9.47,7.15a26.7,26.7,0,0,0,3.1,1.15,26.86,26.86,0,0,0-3.31,5.27,26.92,26.92,0,0,1-4-1.61A24.83,24.83,0,0,1,9.47,7.15ZM1.12,25.51a24.38,24.38,0,0,1,.49-4.87H49.39a24.38,24.38,0,0,1,.49,4.87,24.7,24.7,0,0,1-.48,4.82H1.6A24,24,0,0,1,1.12,25.51Zm31.82,22A17.49,17.49,0,0,0,30.77,47,25.36,25.36,0,0,0,34.35,42c1.24.24,2.43.53,3.56.86A26.08,26.08,0,0,1,32.94,47.55ZM38.27,43a29.47,29.47,0,0,1,3,1.1,24.45,24.45,0,0,1-6.78,4.08,10.67,10.67,0,0,0-1.13-.49A27.05,27.05,0,0,0,38.27,43ZM18,47.5a25.62,25.62,0,0,1-4.94-4.65A35.51,35.51,0,0,1,16.61,42a25,25,0,0,0,3.58,4.91A19.85,19.85,0,0,0,18,47.5Zm-.4.13c-.42.16-.82.33-1.19.51a24.07,24.07,0,0,1-6.73-4.09,27.22,27.22,0,0,1,3-1.1A25.86,25.86,0,0,0,17.6,47.63ZM7.19,31.45a27.47,27.47,0,0,0,1.87,5.62A28.77,28.77,0,0,0,5,38.68a24.23,24.23,0,0,1-3.14-7.23Zm.36,0H13a35.82,35.82,0,0,0,1,4.38A43.59,43.59,0,0,0,9.39,37,26.23,26.23,0,0,1,7.55,31.45ZM20,35.37c1.72-.14,3.48-.22,5.27-.22v5.72c-1.35,0-2.7.06-4,.17A50.13,50.13,0,0,1,20,35.37Zm.91,5.7c-1.43.13-2.81.31-4.15.56a30.37,30.37,0,0,1-2.32-5.53c1.66-.3,3.41-.54,5.22-.7A47,47,0,0,0,20.94,41.07Zm4.71-5.92c1.79,0,3.56.09,5.27.24a46.37,46.37,0,0,1-1.25,5.66q-2-.16-4-.18Zm5.62.27c1.81.16,3.56.41,5.22.71a30.37,30.37,0,0,1-2.32,5.53c-1.34-.25-2.72-.45-4.15-.58A46.79,46.79,0,0,0,31.27,35.42Zm.05-.34c.18-1.18.33-2.39.44-3.63h5.83a35.34,35.34,0,0,1-1,4.35C34.91,35.49,33.15,35.24,31.32,35.08Zm-.34,0c-1.74-.15-3.52-.23-5.33-.24V31.45h5.76C31.3,32.68,31.16,33.88,31,35.05Zm-5.68-.24c-1.81,0-3.59.08-5.32.22-.18-1.16-.33-2.36-.44-3.58H25.3Zm-6.11-3.36c.12,1.23.26,2.44.44,3.61-1.82.16-3.58.4-5.27.71a35.27,35.27,0,0,1-1-4.32Zm-5.07,4.71a31.09,31.09,0,0,0,2.32,5.53c-1.26.24-2.47.53-3.62.87a27.62,27.62,0,0,1-3.29-5.28A43.43,43.43,0,0,1,14.12,36.16Zm6.47,10.69A24.75,24.75,0,0,1,17,41.94c1.31-.23,2.67-.41,4.06-.53a31.23,31.23,0,0,0,2,5.12A23.18,23.18,0,0,0,20.59,46.85Zm2.81-.35a30,30,0,0,1-2-5.12c1.29-.1,2.6-.16,3.92-.17v5.22C24.66,46.43,24,46.46,23.4,46.5Zm2.25-5.28c1.33,0,2.64.06,3.93.17a29.7,29.7,0,0,1-2,5.12c-.63,0-1.27-.07-1.92-.08Zm4.28.2c1.39.13,2.75.31,4.06.55a24.46,24.46,0,0,1-3.62,4.91c-.77-.15-1.59-.26-2.43-.34A30.89,30.89,0,0,0,29.93,41.42Zm4.59.3a30.34,30.34,0,0,0,2.31-5.53,43.27,43.27,0,0,1,4.65,1.16,27.84,27.84,0,0,1-3.33,5.26C37,42.27,35.79,42,34.52,41.72Zm2.41-5.85a35.06,35.06,0,0,0,1-4.42h5.63A27.38,27.38,0,0,1,41.63,37,41.38,41.38,0,0,0,36.93,35.87Zm7-4.42h5.22A24.24,24.24,0,0,1,46,38.77a27.9,27.9,0,0,0-4-1.63A27.51,27.51,0,0,0,43.92,31.45ZM5.18,39a28.54,28.54,0,0,1,4-1.59,26.75,26.75,0,0,0,3.27,5.28A28.29,28.29,0,0,0,9.39,43.8,24.89,24.89,0,0,1,5.18,39Zm11.66,9.34a21.75,21.75,0,0,1,8.55-1.54A21.52,21.52,0,0,1,34,48.36a24.27,24.27,0,0,1-17.2,0Zm24.69-4.44a25.33,25.33,0,0,0-3-1.15,28.4,28.4,0,0,0,3.31-5.26,26.26,26.26,0,0,1,3.94,1.6A24.83,24.83,0,0,1,41.53,43.87Z"/><path class="cls-2" d="M79.37,38.52H74l-2.14-5.58H62l-2,5.58H54.75L64.3,14h5.24Zm-9.12-9.71L66.87,19.7l-3.32,9.11Z"/><path class="cls-2" d="M81.45,14h5v13.3a26.21,26.21,0,0,0,.19,4.1,3.94,3.94,0,0,0,1.51,2.42,5.27,5.27,0,0,0,3.27.91,4.94,4.94,0,0,0,3.18-.86,3.35,3.35,0,0,0,1.29-2.12,26.86,26.86,0,0,0,.22-4.17V14h5v12.9a32.92,32.92,0,0,1-.4,6.24,6.87,6.87,0,0,1-1.48,3.08,7.36,7.36,0,0,1-2.89,2,12.47,12.47,0,0,1-4.72.75,13.62,13.62,0,0,1-5.33-.81A7.72,7.72,0,0,1,83.32,36a6.91,6.91,0,0,1-1.39-2.72,30.23,30.23,0,0,1-.48-6.23Z"/><path class="cls-2" d="M105.84,38.52V14h4.82l10,16.4V14h4.61V38.52h-5l-9.89-16v16Z"/><path class="cls-2" d="M130,14H139a17.73,17.73,0,0,1,4.67.47,8.16,8.16,0,0,1,3.7,2.26,10.73,10.73,0,0,1,2.35,4,18.28,18.28,0,0,1,.8,5.8,16.27,16.27,0,0,1-.75,5.23A10.86,10.86,0,0,1,147.17,36a8.7,8.7,0,0,1-3.48,2,14.91,14.91,0,0,1-4.39.52H130Zm5,4.15V34.39h3.7a13.23,13.23,0,0,0,3-.24,4.58,4.58,0,0,0,2-1,5.25,5.25,0,0,0,1.3-2.37,16.23,16.23,0,0,0,.5-4.5,14.89,14.89,0,0,0-.5-4.37,5.75,5.75,0,0,0-1.41-2.38,4.7,4.7,0,0,0-2.29-1.15,22,22,0,0,0-4.07-.24Z"/><path class="cls-2" d="M154.17,38.52V14h18.19v4.15H159.12v5.45h12.32V27.7H159.12v6.69h13.71v4.13Z"/></svg>