<?xml version="1.0" encoding="utf-8"?>
<!-- Generator: Adobe Illustrator 23.0.2, SVG Export Plug-In . SVG Version: 6.00 Build 0)  -->
<svg version="1.1" id="Layer_1" xmlns="http://www.w3.org/2000/svg" xmlns:xlink="http://www.w3.org/1999/xlink" x="0px" y="0px"
	 viewBox="0 0 50 50" style="enable-background:new 0 0 50 50;" xml:space="preserve">
<style type="text/css">
	.st0{fill:none;stroke:#002EAF;stroke-miterlimit:10;}
	.st1{fill:#02165B;}
</style>
<circle class="st0" cx="25" cy="25" r="23"/>
<g>
	<g>
		<path id="Shape_8_" class="st1" d="M33.5,8h-17c-0.6,0-1.1,0.5-1.1,1.1v4c0,0.6,0.5,1.1,1.1,1.1h1.7v2.8c0,0.2-0.2-0.1,3.4,5.8v2
			c0,0.4,0,0.4,1.6,3c0.2,0.4,0.6,0.6,1,0.6h0.2v2.5l-11.9,4.7C12.2,35.7,12,36,12,36.3c0,0.3,0.2,0.7,0.5,0.8
			C25.1,42.2,24.4,42,25,42s-0.1,0.2,12.5-4.9c0.3-0.1,0.5-0.4,0.5-0.8s-0.2-0.7-0.5-0.8l-11.9-4.7v-2.5h0.2c0.4,0,0.8-0.2,1-0.6
			c1.6-2.6,1.6-2.6,1.6-3v-1.9c3.6-5.9,3.4-5.6,3.4-5.8v-2.8h1.7c0.6,0,1.1-0.5,1.1-1.1v-4C34.6,8.5,34.1,8,33.5,8z M24.4,32.1V36
			l-5.5,2.5l-5.4-2.2L24.4,32.1z M36.4,36.3l-11,4.5c-0.3,0.1-0.6,0.1-0.8,0l-4.2-1.7l4.9-2.3c0.2-0.1,0.3-0.3,0.3-0.5V32L36.4,36.3
			z M27.3,24.8l-1.5,2.4h-1.6l-1.5-2.4v-1.5h4.5L27.3,24.8L27.3,24.8z M30.7,16.5h-6.2c-0.3,0-0.6,0.3-0.6,0.6
			c0,0.3,0.3,0.6,0.6,0.6h5.8l-2.7,4.5h-5l-2.7-4.5h1.8c0.3,0,0.6-0.3,0.6-0.6c0-0.3-0.3-0.6-0.6-0.6h-2.3v-2.3h11.3L30.7,16.5
			L30.7,16.5z M33.5,13.1h-17v-4h1.1v1.1c0,0.3,0.3,0.6,0.6,0.6c0.3,0,0.6-0.3,0.6-0.6V9.1h1.1v1.1c0,0.3,0.3,0.6,0.6,0.6
			c0.3,0,0.6-0.3,0.6-0.6V9.1h1.1v1.1c0,0.3,0.3,0.6,0.6,0.6c0.3,0,0.6-0.3,0.6-0.6V9.1h1.1v1.1c0,0.3,0.3,0.6,0.6,0.6
			c0.3,0,0.6-0.3,0.6-0.6V9.1h1.1v1.1c0,0.3,0.3,0.6,0.6,0.6c0.3,0,0.6-0.3,0.6-0.6V9.1H29v1.1c0,0.3,0.3,0.6,0.6,0.6
			c0.3,0,0.6-0.3,0.6-0.6V9.1h1.1v1.1c0,0.3,0.3,0.6,0.6,0.6c0.3,0,0.6-0.3,0.6-0.6V9.1h1.1L33.5,13.1L33.5,13.1z"/>
		<path class="st1" d="M33.1,22.3c0.2-0.1,0.3-0.2,0.4-0.4c0-0.2,0-0.4-0.2-0.5c-0.2-0.1-0.4-0.2-0.6-0.1c-2.2,0.7-3.1,2.8-2.1,4.9
			c0.7,1.5,0.1,2.8-1.5,3.4c-0.3,0.1-0.4,0.4-0.3,0.7s0.4,0.5,0.7,0.4c1-0.3,1.9-1,2.3-1.9c0.4-1,0.4-2.1-0.1-3
			C30.9,24.2,31.5,22.8,33.1,22.3L33.1,22.3z"/>
		<path class="st1" d="M37.3,16.8c0.1,0,0.3-0.1,0.3-0.3c0.1-0.1,0.1-0.3,0-0.4c-0.1-0.3-0.4-0.4-0.7-0.4c-1,0.3-1.9,1-2.3,1.9
			s-0.4,2.1,0.1,3c0.7,1.5,0.1,2.9-1.5,3.4c-0.3,0.1-0.5,0.4-0.4,0.7s0.4,0.5,0.7,0.4c2.2-0.7,3.1-2.8,2.1-4.9
			C35.2,18.6,35.7,17.3,37.3,16.8L37.3,16.8z"/>
	</g>
</g>
</svg>
