<?xml version="1.0" encoding="utf-8"?>
<!-- Generator: Adobe Illustrator 23.0.2, SVG Export Plug-In . SVG Version: 6.00 Build 0)  -->
<svg version="1.1" id="Layer_1" xmlns="http://www.w3.org/2000/svg" xmlns:xlink="http://www.w3.org/1999/xlink" x="0px" y="0px"
	 viewBox="0 0 30 30" style="enable-background:new 0 0 30 30;" xml:space="preserve">
<style type="text/css">
	.st0{fill:#FFFFFF;}
</style>
<g>
	<path class="st0" d="M15,0.6C7.1,0.6,0.7,7,0.7,14.9c0,2.7,0.7,5.1,2,7.3l-1.8,7.2l7.1-2.1c2,1.1,4.4,1.8,6.9,1.8
		c7.9,0,14.3-6.4,14.3-14.3C29.3,7,22.9,0.6,15,0.6z M15.2,26.7c-2.5,0-4.8-0.8-6.7-2.1l-4.1,1.2l1-4.2c-1.3-1.9-2.1-4.2-2.1-6.7
		c0-6.5,5.3-11.8,11.8-11.8S27,8.4,27,14.9C27,21.5,21.7,26.7,15.2,26.7z"/>
	<path class="st0" d="M11.4,13.7c0.2-0.2,0.3-0.4,0.5-0.6c0.3-0.3,0.7-0.6,0.7-1.1c0-0.4-0.1-0.9-0.3-1.3c-0.1-0.3-0.2-0.5-0.3-0.8
		c-0.2-0.5-0.4-1.1-0.7-1.4c-0.4-0.4-1-0.5-1.4-0.2c0,0-2.8,1.3-1.9,4c0,0,1.7,7.6,10.1,9.1c0,0,3,0.4,3.8-1.4
		c0.2-0.4,0.3-1,0.3-1.4c0-0.4-0.3-0.7-0.7-0.9c-0.4-0.2-0.8-0.5-1.3-0.7c-0.4-0.2-0.9-0.5-1.4-0.4c-0.4,0.1-0.6,0.4-0.9,0.7
		c-0.3,0.3-0.7,0.7-1,1C16.8,18.5,12.5,16.9,11.4,13.7z"/>
</g>
</svg>
